<svg width="260" height="85" viewBox="0 0 260 85" fill="none" xmlns="http://www.w3.org/2000/svg">
<path d="M143 32C143 43.5978 132.926 53 120.5 53C108.074 53 98 43.5978 98 32C98 20.4022 108.074 11 120.5 11C132.926 11 143 20.4022 143 32Z" fill="#88C9F9"/>
<path d="M102.534 19.2225C101.971 15.8042 105.278 14.3739 107.043 14.0087C108.808 13.6412 110.513 13.2842 110.709 14.0146C110.904 14.7472 111.098 15.7191 112.176 15.3539C113.253 14.9876 115.979 14.7017 117.254 13.7882C118.528 12.8747 120.059 12.8701 121.334 13.2364C122.608 13.6016 126.181 13.5012 125.397 14.5979C124.613 15.6957 123.116 15.5627 122.333 16.8426C121.549 18.1247 122.548 18.9729 123.626 18.9729C124.707 18.9729 125.762 19.1304 126.449 18.1247C127.136 17.1179 125.972 15.2512 126.856 15.3749C127.738 15.4986 128.702 16.3852 129.393 17.7584C130.077 19.1304 131.153 18.3067 131.547 19.1304C131.938 19.9529 134.097 21.5092 133.018 21.2351C131.938 20.9597 130.861 20.7777 130.567 21.7834C130.272 22.7902 131.053 23.7971 130.272 23.7049C129.488 23.6127 129.196 23.8087 128.116 23.7095C127.038 23.6127 126.449 22.9734 125.567 24.3454C124.686 25.7162 123.999 26.6332 123.608 27.2726C123.214 27.913 122.627 28.277 122.921 29.5592C123.214 30.8414 122.136 30.475 122.136 29.3772C122.136 28.2806 121.451 28.0962 120.569 28.2782C119.687 28.4614 118.316 28.6434 118.414 29.5592C118.511 30.4739 118.021 31.5717 118.806 32.3032C119.589 33.0371 120.468 32.2145 120.959 32.4875C121.451 32.764 122.866 32.5144 122.376 32.9729C121.884 33.429 120.176 34.0007 121.156 34.7334C122.138 35.4637 123.128 35.7005 123.522 35.7915C123.913 35.8849 123.599 34.8885 124.876 34.4312C126.147 33.9739 128.136 32.9262 128.626 33.7499C129.114 34.5724 129.048 34.444 130.813 34.6249C132.576 34.8069 133.051 35.3074 133.834 36.8614C134.618 38.4165 134.392 38.252 135.662 38.7059C136.938 39.1644 137.759 38.9649 136.583 39.9729C135.407 40.9762 134.519 40.9225 133.834 42.1114C133.147 43.2979 133.643 44.1309 132.272 45.3197C130.899 46.5085 129.469 47.5084 128.001 48.3332C127.228 48.7649 125.298 50.7482 124.147 51.4447C123.104 52.0759 122.793 51.4447 122.793 51.4447C122.793 51.4447 123.113 49.4999 123.998 48.6774C124.878 47.8549 125.379 44.776 125.084 43.8614C124.792 42.9479 123.384 42.6714 122.897 42.3062C122.407 41.9422 121.126 40.5002 121.126 39.5832C121.126 38.6685 123.263 36.306 123.263 36.306C123.536 37.5754 121.964 35.9222 121.229 35.6947C120.642 35.5115 119.302 33.7627 118.156 33.5784C117.011 33.3929 116.452 32.7617 115.571 32.1201C114.688 31.4795 112.532 30.566 112.629 29.5592C112.728 28.5535 110.473 27.7299 110.082 27.7299C109.689 27.7299 108.808 27.7299 108.023 26.4489C107.239 25.1679 105.867 23.8869 106.259 22.9734C106.651 22.0587 106.749 20.9585 106.552 19.9529C106.357 18.9472 104.887 18.5809 104.593 18.855C104.299 19.1304 102.732 20.4126 102.534 19.2225Z" fill="#5C913B"/>
<g filter="url(#filter0_f)">
<ellipse cx="119.5" cy="59.5" rx="12.5" ry="2.5" fill="#0D0D0D"/>
</g>
<g filter="url(#filter1_d)">
<path d="M15.0996 72.4951V75H13.6348V67.8906H16.4082C16.9421 67.8906 17.4108 67.9883 17.8145 68.1836C18.2214 68.3789 18.5339 68.6572 18.752 69.0186C18.9701 69.3766 19.0791 69.7852 19.0791 70.2441C19.0791 70.9408 18.8398 71.4909 18.3613 71.8945C17.8861 72.2949 17.2269 72.4951 16.3838 72.4951H15.0996ZM15.0996 71.3086H16.4082C16.7956 71.3086 17.0902 71.2174 17.292 71.0352C17.4971 70.8529 17.5996 70.5924 17.5996 70.2539C17.5996 69.9056 17.4971 69.624 17.292 69.4092C17.0869 69.1943 16.8037 69.0837 16.4424 69.0771H15.0996V71.3086ZM26.9297 71.6064C26.9297 72.3063 26.806 72.9199 26.5586 73.4473C26.3112 73.9746 25.9564 74.3815 25.4941 74.668C25.0352 74.9544 24.5078 75.0977 23.9121 75.0977C23.3229 75.0977 22.7972 74.9561 22.335 74.6729C21.8727 74.3896 21.5146 73.986 21.2607 73.4619C21.0068 72.9346 20.8783 72.3291 20.875 71.6455V71.2939C20.875 70.5941 21.0003 69.9788 21.251 69.4482C21.5049 68.9144 21.8613 68.5059 22.3203 68.2227C22.7826 67.9362 23.3099 67.793 23.9023 67.793C24.4948 67.793 25.0205 67.9362 25.4795 68.2227C25.9417 68.5059 26.2982 68.9144 26.5488 69.4482C26.8027 69.9788 26.9297 70.5924 26.9297 71.2891V71.6064ZM25.4453 71.2842C25.4453 70.5387 25.3118 69.9723 25.0449 69.585C24.778 69.1976 24.3971 69.0039 23.9023 69.0039C23.4108 69.0039 23.0316 69.196 22.7646 69.5801C22.4977 69.9609 22.3626 70.5208 22.3594 71.2598V71.6064C22.3594 72.3324 22.4928 72.8955 22.7598 73.2959C23.0267 73.6963 23.4108 73.8965 23.9121 73.8965C24.4036 73.8965 24.7812 73.7044 25.0449 73.3203C25.3086 72.9329 25.4421 72.3698 25.4453 71.6309V71.2842ZM34.5312 72.9492L35.4883 67.8906H36.9482L35.3711 75H33.8965L32.7393 70.2441L31.582 75H30.1074L28.5303 67.8906H29.9902L30.9521 72.9395L32.124 67.8906H33.3643L34.5312 72.9492ZM43.0215 71.9189H40.209V73.8232H43.5098V75H38.7441V67.8906H43.5V69.0771H40.209V70.7715H43.0215V71.9189ZM48.001 72.3975H46.834V75H45.3691V67.8906H48.0107C48.8506 67.8906 49.4984 68.0778 49.9541 68.4521C50.4098 68.8265 50.6377 69.3555 50.6377 70.0391C50.6377 70.5241 50.5319 70.9294 50.3203 71.2549C50.112 71.5771 49.7946 71.8343 49.3682 72.0264L50.9062 74.9316V75H49.334L48.001 72.3975ZM46.834 71.2109H48.0156C48.3835 71.2109 48.6683 71.1182 48.8701 70.9326C49.0719 70.7438 49.1729 70.485 49.1729 70.1562C49.1729 69.821 49.0768 69.5573 48.8848 69.3652C48.696 69.1732 48.4046 69.0771 48.0107 69.0771H46.834V71.2109ZM57.0332 71.9189H54.2207V73.8232H57.5215V75H52.7559V67.8906H57.5117V69.0771H54.2207V70.7715H57.0332V71.9189ZM59.3809 75V67.8906H61.5684C62.1934 67.8906 62.7516 68.0322 63.2432 68.3154C63.738 68.5954 64.1237 68.9958 64.4004 69.5166C64.6771 70.0342 64.8154 70.6234 64.8154 71.2842V71.6113C64.8154 72.2721 64.6787 72.8597 64.4053 73.374C64.1351 73.8883 63.7526 74.2871 63.2578 74.5703C62.763 74.8535 62.2048 74.9967 61.583 75H59.3809ZM60.8457 69.0771V73.8232H61.5537C62.1266 73.8232 62.5645 73.6361 62.8672 73.2617C63.1699 72.8874 63.3245 72.3519 63.3311 71.6553V71.2793C63.3311 70.5566 63.1813 70.0098 62.8818 69.6387C62.5824 69.2643 62.1445 69.0771 61.5684 69.0771H60.8457ZM70.375 75V67.8906H72.8652C73.7279 67.8906 74.3822 68.0566 74.8281 68.3887C75.2741 68.7174 75.4971 69.2008 75.4971 69.8389C75.4971 70.1872 75.4076 70.4948 75.2285 70.7617C75.0495 71.0254 74.8005 71.2191 74.4814 71.3428C74.846 71.4339 75.1325 71.6178 75.3408 71.8945C75.5524 72.1712 75.6582 72.5098 75.6582 72.9102C75.6582 73.5938 75.4401 74.1113 75.0039 74.4629C74.5677 74.8145 73.946 74.9935 73.1387 75H70.375ZM71.8398 71.9043V73.8232H73.0947C73.4398 73.8232 73.7083 73.7419 73.9004 73.5791C74.0957 73.4131 74.1934 73.1852 74.1934 72.8955C74.1934 72.2445 73.8564 71.9141 73.1826 71.9043H71.8398ZM71.8398 70.8691H72.9238C73.6628 70.8561 74.0322 70.5615 74.0322 69.9854C74.0322 69.6631 73.9378 69.432 73.749 69.292C73.5635 69.1488 73.2689 69.0771 72.8652 69.0771H71.8398V70.8691ZM79.9395 71.0938L81.4189 67.8906H83.0205L80.6865 72.4219V75H79.1973V72.4219L76.8633 67.8906H78.4697L79.9395 71.0938ZM89.7178 75H88.2529V67.8906H89.7178V75ZM97.8613 75H96.3965L93.5449 70.3223V75H92.0801V67.8906H93.5449L96.4014 72.5781V67.8906H97.8613V75ZM105.346 69.0771H103.168V75H101.703V69.0771H99.5547V67.8906H105.346V69.0771ZM111.463 71.9189H108.65V73.8232H111.951V75H107.186V67.8906H111.941V69.0771H108.65V70.7715H111.463V71.9189ZM115.275 73.8232H118.386V75H113.811V67.8906H115.275V73.8232ZM121.695 73.8232H124.806V75H120.23V67.8906H121.695V73.8232ZM130.928 71.9189H128.115V73.8232H131.416V75H126.65V67.8906H131.406V69.0771H128.115V70.7715H130.928V71.9189ZM138.856 72.6318C138.801 73.3968 138.518 73.999 138.007 74.4385C137.499 74.8779 136.828 75.0977 135.995 75.0977C135.084 75.0977 134.366 74.7917 133.842 74.1797C133.321 73.5645 133.061 72.7214 133.061 71.6504V71.2158C133.061 70.5322 133.181 69.93 133.422 69.4092C133.663 68.8883 134.006 68.4896 134.452 68.2129C134.901 67.9329 135.422 67.793 136.015 67.793C136.835 67.793 137.496 68.0127 137.997 68.4521C138.498 68.8916 138.788 69.5085 138.866 70.3027H137.401C137.366 69.8438 137.237 69.5117 137.016 69.3066C136.798 69.0983 136.464 68.9941 136.015 68.9941C135.526 68.9941 135.16 69.1699 134.916 69.5215C134.675 69.8698 134.551 70.4118 134.545 71.1475V71.6846C134.545 72.4528 134.66 73.0143 134.892 73.3691C135.126 73.724 135.494 73.9014 135.995 73.9014C136.448 73.9014 136.785 73.7988 137.006 73.5938C137.23 73.3854 137.359 73.0648 137.392 72.6318H138.856ZM146.023 69.0771H143.846V75H142.381V69.0771H140.232V67.8906H146.023V69.0771ZM151.061 75V67.8906H153.248C153.873 67.8906 154.431 68.0322 154.923 68.3154C155.418 68.5954 155.803 68.9958 156.08 69.5166C156.357 70.0342 156.495 70.6234 156.495 71.2842V71.6113C156.495 72.2721 156.358 72.8597 156.085 73.374C155.815 73.8883 155.432 74.2871 154.938 74.5703C154.443 74.8535 153.884 74.9967 153.263 75H151.061ZM152.525 69.0771V73.8232H153.233C153.806 73.8232 154.244 73.6361 154.547 73.2617C154.85 72.8874 155.004 72.3519 155.011 71.6553V71.2793C155.011 70.5566 154.861 70.0098 154.562 69.6387C154.262 69.2643 153.824 69.0771 153.248 69.0771H152.525ZM161.196 72.3975H160.029V75H158.564V67.8906H161.206C162.046 67.8906 162.694 68.0778 163.149 68.4521C163.605 68.8265 163.833 69.3555 163.833 70.0391C163.833 70.5241 163.727 70.9294 163.516 71.2549C163.307 71.5771 162.99 71.8343 162.563 72.0264L164.102 74.9316V75H162.529L161.196 72.3975ZM160.029 71.2109H161.211C161.579 71.2109 161.864 71.1182 162.065 70.9326C162.267 70.7438 162.368 70.485 162.368 70.1562C162.368 69.821 162.272 69.5573 162.08 69.3652C161.891 69.1732 161.6 69.0771 161.206 69.0771H160.029V71.2109ZM167.509 75H166.044V67.8906H167.509V75ZM172.498 73.2373L174.109 67.8906H175.74L173.265 75H171.736L169.271 67.8906H170.896L172.498 73.2373ZM181.691 71.9189H178.879V73.8232H182.18V75H177.414V67.8906H182.17V69.0771H178.879V70.7715H181.691V71.9189ZM189.82 75H188.355L185.504 70.3223V75H184.039V67.8906H185.504L188.36 72.5781V67.8906H189.82V75ZM195.59 75V67.8906H198.08C198.943 67.8906 199.597 68.0566 200.043 68.3887C200.489 68.7174 200.712 69.2008 200.712 69.8389C200.712 70.1872 200.622 70.4948 200.443 70.7617C200.264 71.0254 200.015 71.2191 199.696 71.3428C200.061 71.4339 200.347 71.6178 200.556 71.8945C200.767 72.1712 200.873 72.5098 200.873 72.9102C200.873 73.5938 200.655 74.1113 200.219 74.4629C199.783 74.8145 199.161 74.9935 198.354 75H195.59ZM197.055 71.9043V73.8232H198.31C198.655 73.8232 198.923 73.7419 199.115 73.5791C199.311 73.4131 199.408 73.1852 199.408 72.8955C199.408 72.2445 199.071 71.9141 198.397 71.9043H197.055ZM197.055 70.8691H198.139C198.878 70.8561 199.247 70.5615 199.247 69.9854C199.247 69.6631 199.153 69.432 198.964 69.292C198.778 69.1488 198.484 69.0771 198.08 69.0771H197.055V70.8691ZM205.154 71.0938L206.634 67.8906H208.235L205.901 72.4219V75H204.412V72.4219L202.078 67.8906H203.685L205.154 71.0938ZM216.002 73.2373L217.613 67.8906H219.244L216.769 75H215.24L212.774 67.8906H214.4L216.002 73.2373ZM224.561 73.5352H221.992L221.504 75H219.946L222.593 67.8906H223.95L226.611 75H225.054L224.561 73.5352ZM222.388 72.3486H224.165L223.271 69.6875L222.388 72.3486ZM229.74 73.8232H232.851V75H228.275V67.8906H229.74V73.8232ZM239.959 67.8906V72.5732C239.959 73.3512 239.715 73.9665 239.227 74.4189C238.742 74.8714 238.077 75.0977 237.234 75.0977C236.404 75.0977 235.745 74.8779 235.257 74.4385C234.769 73.999 234.52 73.3952 234.51 72.627V67.8906H235.975V72.583C235.975 73.0485 236.085 73.3887 236.307 73.6035C236.531 73.8151 236.84 73.9209 237.234 73.9209C238.058 73.9209 238.476 73.488 238.489 72.6221V67.8906H239.959ZM246.438 71.9189H243.625V73.8232H246.926V75H242.16V67.8906H246.916V69.0771H243.625V70.7715H246.438V71.9189ZM252.472 73.1348C252.472 72.8581 252.374 72.6465 252.179 72.5C251.983 72.3503 251.632 72.194 251.124 72.0312C250.616 71.8652 250.214 71.7025 249.918 71.543C249.111 71.1068 248.707 70.5192 248.707 69.7803C248.707 69.3962 248.814 69.0544 249.029 68.7549C249.247 68.4521 249.558 68.2161 249.962 68.0469C250.369 67.8776 250.825 67.793 251.329 67.793C251.837 67.793 252.289 67.8857 252.687 68.0713C253.084 68.2536 253.391 68.5124 253.609 68.8477C253.831 69.1829 253.941 69.5638 253.941 69.9902H252.477C252.477 69.6647 252.374 69.4124 252.169 69.2334C251.964 69.0511 251.676 68.96 251.305 68.96C250.947 68.96 250.668 69.0365 250.47 69.1895C250.271 69.3392 250.172 69.5378 250.172 69.7852C250.172 70.0163 250.287 70.21 250.519 70.3662C250.753 70.5225 251.096 70.6689 251.549 70.8057C252.382 71.0563 252.989 71.3672 253.37 71.7383C253.751 72.1094 253.941 72.5716 253.941 73.125C253.941 73.7402 253.709 74.2236 253.243 74.5752C252.778 74.9235 252.151 75.0977 251.363 75.0977C250.816 75.0977 250.318 74.9984 249.869 74.7998C249.42 74.598 249.076 74.3229 248.839 73.9746C248.604 73.6263 248.487 73.2227 248.487 72.7637H249.957C249.957 73.5482 250.426 73.9404 251.363 73.9404C251.712 73.9404 251.983 73.8704 252.179 73.7305C252.374 73.5872 252.472 73.3887 252.472 73.1348Z" fill="white"/>
</g>
<path d="M252.907 49.4809C253.835 50.3133 254.024 50.787 254.062 50.9243C253.999 51.0522 253.727 51.4833 252.662 52.1317C251.248 52.9934 248.994 53.8781 245.811 54.7014C239.485 56.3378 230.258 57.5418 218.714 58.2221C195.676 59.5797 163.98 58.822 129.113 55.602C94.2454 52.3821 62.9465 47.3224 40.5469 41.7688C29.3227 38.9859 20.4724 36.1125 14.553 33.3453C11.5749 31.953 9.52128 30.6705 8.28852 29.5644C7.36081 28.732 7.17172 28.2583 7.13387 28.1211C7.19622 27.9931 7.46886 27.562 8.53331 26.9136C9.94779 26.052 12.2016 25.1672 15.3843 24.3439C21.7103 22.7075 30.9371 21.5035 42.4812 20.8232C65.5191 19.4656 97.2152 20.2234 132.083 23.4433C166.95 26.6632 198.249 31.7229 220.649 37.2765C231.873 40.0594 240.723 42.9328 246.642 45.7001C249.621 47.0923 251.674 48.3748 252.907 49.4809Z" stroke="url(#paint0_linear)" stroke-width="6.4"/>
<path d="M17.1792 53.288C16.4496 53.288 15.8352 53.0384 15.336 52.5392C14.8368 52.04 14.5872 51.4256 14.5872 50.696V16.3088C14.5872 15.272 14.952 14.3888 15.6816 13.6592C16.4112 12.8912 17.2944 12.5072 18.3312 12.5072H20.232C21 12.5072 21.6912 12.7376 22.3056 13.1984C22.9584 13.6592 23.4384 14.2352 23.7456 14.9264L36.8208 47.528L49.896 14.9264C50.2032 14.2352 50.664 13.6592 51.2784 13.1984C51.9312 12.7376 52.6416 12.5072 53.4096 12.5072H55.3104C56.3472 12.5072 57.2304 12.8912 57.96 13.6592C58.6896 14.3888 59.0544 15.272 59.0544 16.3088V50.696C59.0544 51.4256 58.8048 52.04 58.3056 52.5392C57.8064 53.0384 57.192 53.288 56.4624 53.288C55.7328 53.288 55.0992 53.0384 54.5616 52.5392C54.0624 52.04 53.8128 51.4256 53.8128 50.696V17.9792L40.5072 50.8688C40.2 51.5984 39.7008 52.1936 39.0096 52.6544C38.3568 53.0768 37.6272 53.288 36.8208 53.288C36.0144 53.288 35.2656 53.0768 34.5744 52.6544C33.9216 52.1936 33.4416 51.5984 33.1344 50.8688L19.8288 17.9792V50.696C19.8288 51.4256 19.56 52.04 19.0224 52.5392C18.5232 53.0384 17.9088 53.288 17.1792 53.288ZM69.9304 53.288C69.2008 53.288 68.5864 53.0384 68.0872 52.5392C67.588 52.04 67.3384 51.4256 67.3384 50.696V15.4448C67.3384 14.7152 67.588 14.1008 68.0872 13.6016C68.5864 13.064 69.2008 12.7952 69.9304 12.7952H92.3368C93.028 12.7952 93.604 13.0448 94.0648 13.544C94.564 14.0048 94.8136 14.5808 94.8136 15.272C94.8136 15.9632 94.564 16.5392 94.0648 17C93.604 17.4608 93.028 17.6912 92.3368 17.6912H72.58V30.4208H90.3208C91.012 30.4208 91.588 30.6704 92.0488 31.1696C92.548 31.6304 92.7976 32.2064 92.7976 32.8976C92.7976 33.5888 92.548 34.1648 92.0488 34.6256C91.588 35.0864 91.012 35.3168 90.3208 35.3168H72.58V50.696C72.58 51.4256 72.3112 52.04 71.7736 52.5392C71.2744 53.0384 70.66 53.288 69.9304 53.288ZM150.424 53.288C149.695 53.288 149.08 53.0384 148.581 52.5392C148.082 52.04 147.832 51.4256 147.832 50.696V15.4448C147.832 14.7152 148.082 14.1008 148.581 13.6016C149.08 13.064 149.695 12.7952 150.424 12.7952H163.845C169.067 12.7952 172.984 13.8704 175.595 16.0208C178.207 18.1712 179.512 20.9936 179.512 24.488C179.512 26.792 178.859 28.904 177.554 30.824C176.287 32.7056 174.424 34.0688 171.967 34.9136C174.731 35.6432 176.613 37.3712 177.611 40.0976C178.648 42.7856 179.167 45.4352 179.167 48.0464V50.696C179.167 51.4256 178.917 52.04 178.418 52.5392C177.919 53.0384 177.304 53.288 176.575 53.288C175.768 53.288 175.115 53.0576 174.616 52.5968C174.155 52.0976 173.925 51.464 173.925 50.696V48.968C173.925 47.048 173.752 45.2816 173.407 43.6688C173.061 42.0176 172.235 40.5584 170.93 39.2912C169.624 37.9856 167.647 37.3328 164.997 37.3328H153.074V50.696C153.074 51.4256 152.805 52.04 152.267 52.5392C151.768 53.0384 151.154 53.288 150.424 53.288ZM163.499 32.3792C166.802 32.3792 169.413 31.7264 171.333 30.4208C173.291 29.1152 174.271 27.272 174.271 24.8912C174.271 22.5872 173.426 20.8208 171.736 19.592C170.085 18.3632 167.243 17.7488 163.211 17.7488H153.074V32.3792H163.499ZM203.699 53.576C199.859 53.576 196.403 52.7504 193.331 51.0992C190.298 49.4096 187.898 47.0096 186.131 43.8992C184.403 40.7504 183.539 37.0832 183.539 32.8976C183.539 28.712 184.403 25.064 186.131 21.9536C187.898 18.8048 190.298 16.4048 193.331 14.7536C196.403 13.064 199.859 12.2192 203.699 12.2192C206.31 12.2192 208.634 12.5264 210.669 13.1408C212.742 13.7552 214.797 14.6384 216.832 15.7904C217.677 16.2512 218.099 16.9808 218.099 17.9792C218.099 18.5552 217.888 19.0736 217.466 19.5344C217.043 19.9568 216.486 20.168 215.795 20.168C215.411 20.168 215.066 20.0912 214.758 19.9376C213.069 19.0544 211.418 18.3824 209.805 17.9216C208.192 17.4608 206.33 17.2304 204.218 17.2304C200.915 17.2304 198.093 17.9216 195.75 19.304C193.446 20.648 191.699 22.5104 190.509 24.8912C189.357 27.2336 188.781 29.9024 188.781 32.8976C188.781 35.8928 189.357 38.5808 190.509 40.9616C191.699 43.304 193.446 45.1664 195.75 46.5488C198.093 47.8928 200.915 48.5648 204.218 48.5648C206.33 48.5648 208.192 48.3344 209.805 47.8736C211.418 47.4128 213.069 46.7408 214.758 45.8576C215.066 45.704 215.411 45.6272 215.795 45.6272C216.486 45.6272 217.043 45.8384 217.466 46.2608C217.888 46.6832 218.099 47.2016 218.099 47.816C218.099 48.8144 217.677 49.544 216.832 50.0048C214.797 51.1568 212.742 52.04 210.669 52.6544C208.634 53.2688 206.31 53.576 203.699 53.576ZM225.72 53C224.991 53 224.376 52.7504 223.877 52.2512C223.378 51.752 223.128 51.1376 223.128 50.408V15.4448C223.128 14.7152 223.378 14.1008 223.877 13.6016C224.376 13.064 224.991 12.7952 225.72 12.7952H248.818C249.509 12.7952 250.085 13.0448 250.546 13.544C251.045 14.0048 251.295 14.5808 251.295 15.272C251.295 15.9632 251.045 16.5392 250.546 17C250.085 17.4608 249.509 17.6912 248.818 17.6912H228.37V30.4208H246.744C247.436 30.4208 248.012 30.6704 248.472 31.1696C248.972 31.6304 249.221 32.2064 249.221 32.8976C249.221 33.5888 248.972 34.1648 248.472 34.6256C248.012 35.0864 247.436 35.3168 246.744 35.3168H228.37V48.104H248.818C249.509 48.104 250.085 48.3536 250.546 48.8528C251.045 49.3136 251.295 49.8896 251.295 50.5808C251.295 51.272 251.045 51.848 250.546 52.3088C250.085 52.7696 249.509 53 248.818 53H225.72Z" fill="white"/>
<path d="M26.5 34.5L32.3 36.3L35.4 44L29.55 42.1L26.5 34.5Z" fill="white"/>
<path d="M25.4 19L20.6 20L23 26L28 25.5L25.4 19Z" fill="white"/>
<circle cx="248.8" cy="50.6" r="2.5" fill="white"/>
<path d="M238.963 48.1036L248.5 48.1C248.5 48.1 248.5 53 248 53C247.5 53 238.5 53 238.5 53L238.963 48.1036Z" fill="white"/>
<defs>
<filter id="filter0_f" x="103" y="53" width="33" height="13" filterUnits="userSpaceOnUse" color-interpolation-filters="sRGB">
<feFlood flood-opacity="0" result="BackgroundImageFix"/>
<feBlend mode="normal" in="SourceGraphic" in2="BackgroundImageFix" result="shape"/>
<feGaussianBlur stdDeviation="2" result="effect1_foregroundBlur"/>
</filter>
<filter id="filter1_d" x="8.63477" y="66.793" width="246.307" height="13.3047" filterUnits="userSpaceOnUse" color-interpolation-filters="sRGB">
<feFlood flood-opacity="0" result="BackgroundImageFix"/>
<feColorMatrix in="SourceAlpha" type="matrix" values="0 0 0 0 0 0 0 0 0 0 0 0 0 0 0 0 0 0 127 0"/>
<feOffset dx="-2" dy="2"/>
<feGaussianBlur stdDeviation="1.5"/>
<feColorMatrix type="matrix" values="0 0 0 0 0 0 0 0 0 0 0 0 0 0 0 0 0 0 0.1 0"/>
<feBlend mode="normal" in2="BackgroundImageFix" result="effect1_dropShadow"/>
<feBlend mode="normal" in="SourceGraphic" in2="effect1_dropShadow" result="shape"/>
</filter>
<linearGradient id="paint0_linear" x1="142.5" y1="48" x2="144.5" y2="27.5" gradientUnits="userSpaceOnUse">
<stop stop-color="#3498DB"/>
<stop offset="1" stop-color="#3498DB" stop-opacity="0"/>
</linearGradient>
</defs>
</svg>
