<svg width="260" height="85" viewBox="0 0 260 85" fill="none" xmlns="http://www.w3.org/2000/svg">
<path d="M143 32C143 43.5978 132.926 53 120.5 53C108.074 53 98 43.5978 98 32C98 20.4022 108.074 11 120.5 11C132.926 11 143 20.4022 143 32Z" fill="#88C9F9"/>
<path d="M102.534 19.2226C101.971 15.8042 105.278 14.3739 107.043 14.0087C108.808 13.6412 110.513 13.2842 110.709 14.0146C110.904 14.7472 111.098 15.7191 112.176 15.3539C113.253 14.9876 115.979 14.7017 117.254 13.7882C118.528 12.8747 120.059 12.8701 121.334 13.2364C122.608 13.6016 126.181 13.5012 125.397 14.5979C124.613 15.6957 123.116 15.5627 122.333 16.8426C121.549 18.1247 122.548 18.9729 123.626 18.9729C124.707 18.9729 125.762 19.1304 126.449 18.1247C127.136 17.1179 125.972 15.2512 126.856 15.3749C127.738 15.4986 128.702 16.3852 129.393 17.7584C130.077 19.1304 131.153 18.3067 131.547 19.1304C131.938 19.9529 134.097 21.5092 133.018 21.2351C131.938 20.9597 130.861 20.7777 130.567 21.7834C130.272 22.7902 131.053 23.797 130.272 23.7049C129.488 23.6127 129.196 23.8087 128.116 23.7095C127.038 23.6127 126.449 22.9734 125.567 24.3454C124.686 25.7162 123.999 26.6332 123.608 27.2725C123.214 27.913 122.627 28.277 122.921 29.5592C123.214 30.8414 122.136 30.4751 122.136 29.3772C122.136 28.2806 121.451 28.0962 120.569 28.2782C119.687 28.4614 118.316 28.6434 118.414 29.5592C118.511 30.4739 118.021 31.5717 118.806 32.3032C119.589 33.037 120.468 32.2145 120.959 32.4875C121.451 32.764 122.866 32.5144 122.376 32.9729C121.884 33.429 120.176 34.0007 121.156 34.7334C122.138 35.4637 123.128 35.7005 123.522 35.7915C123.913 35.8849 123.599 34.8885 124.876 34.4312C126.147 33.9739 128.136 32.9262 128.626 33.7499C129.114 34.5724 129.048 34.444 130.813 34.6249C132.576 34.8069 133.051 35.3074 133.834 36.8614C134.618 38.4165 134.392 38.252 135.662 38.7059C136.938 39.1644 137.759 38.9649 136.583 39.9729C135.407 40.9762 134.519 40.9225 133.834 42.1114C133.147 43.2979 133.643 44.1309 132.272 45.3197C130.899 46.5085 129.469 47.5084 128.001 48.3332C127.228 48.7649 125.298 50.7482 124.147 51.4447C123.104 52.0759 122.793 51.4447 122.793 51.4447C122.793 51.4447 123.113 49.4999 123.998 48.6774C124.878 47.8549 125.379 44.776 125.084 43.8614C124.792 42.9479 123.384 42.6714 122.897 42.3062C122.407 41.9422 121.126 40.5002 121.126 39.5832C121.126 38.6685 123.263 36.306 123.263 36.306C123.536 37.5754 121.964 35.9222 121.229 35.6947C120.642 35.5115 119.302 33.7627 118.156 33.5784C117.011 33.3929 116.452 32.7617 115.571 32.12C114.688 31.4795 112.532 30.566 112.629 29.5592C112.728 28.5535 110.473 27.7299 110.082 27.7299C109.689 27.7299 108.808 27.7299 108.023 26.4489C107.239 25.1679 105.867 23.8869 106.259 22.9734C106.651 22.0587 106.749 20.9586 106.552 19.9529C106.357 18.9472 104.887 18.5809 104.593 18.8551C104.299 19.1304 102.732 20.4126 102.534 19.2226Z" fill="#5C913B"/>
<g filter="url(#filter0_f)">
<ellipse cx="121.5" cy="60.5" rx="12.5" ry="2.5" fill="#C4C4C4"/>
</g>
<g filter="url(#filter1_d)">
<path d="M17.3652 73.7051C17.3652 73.8965 17.3027 74.0547 17.1777 74.1797C17.0566 74.3008 16.9004 74.3613 16.709 74.3613H14.5469V78H13.7324V68.8301H16.709C16.9004 68.8301 17.0566 68.8906 17.1777 69.0117C17.3027 69.1328 17.3652 69.2891 17.3652 69.4805V73.7051ZM16.5508 73.6348V69.5508H14.5469V73.6348H16.5508ZM24.6873 77.3496C24.6873 77.541 24.6248 77.6973 24.4998 77.8184C24.3787 77.9395 24.2225 78 24.0311 78H21.4647C21.2733 78 21.117 77.9395 20.9959 77.8184C20.8748 77.6973 20.8143 77.541 20.8143 77.3496V69.4805C20.8143 69.2891 20.8748 69.1328 20.9959 69.0117C21.117 68.8906 21.2733 68.8301 21.4647 68.8301H24.0311C24.2225 68.8301 24.3787 68.8906 24.4998 69.0117C24.6248 69.1328 24.6873 69.2891 24.6873 69.4805V77.3496ZM23.8729 77.2793V69.5508H21.6287V77.2793H23.8729ZM33.8024 68.8301L32.5544 78.0234H31.8923L30.8962 71.1094C30.8923 70.9883 30.8845 70.8086 30.8727 70.5703C30.8727 70.6953 30.8649 70.875 30.8493 71.1094L29.8532 78.0234H29.1911L27.943 68.8301H28.7516L29.5309 75.4453C29.5348 75.5938 29.5427 75.8125 29.5544 76.1016C29.5505 75.9531 29.5583 75.7344 29.5778 75.4453L30.527 68.8301H31.2243L32.1677 75.4453C32.1755 75.5938 32.1833 75.8125 32.1911 76.1016C32.1911 75.9531 32.2009 75.7344 32.2204 75.4453L32.9997 68.8301H33.8024ZM40.064 78H37.0523V68.8301H40.0288V69.5508H37.8667V72.9727H39.8355V73.7051H37.8667V77.2793H40.064V78ZM47.4037 78H46.5482L44.8431 73.0898L44.9545 72.9258H46.4076V69.5508H44.3158V78H43.5013V68.8301H46.5716C46.763 68.8301 46.9193 68.8906 47.0404 69.0117C47.1615 69.1328 47.222 69.2891 47.222 69.4805V72.9609C47.222 73.4023 46.9252 73.623 46.3314 73.623C46.2728 73.623 46.1869 73.6211 46.0736 73.6172C45.9603 73.6094 45.8783 73.6055 45.8275 73.6055C46.3548 75.0664 46.8802 76.5312 47.4037 78ZM53.7941 78H50.7824V68.8301H53.759V69.5508H51.5969V72.9727H53.5656V73.7051H51.5969V77.2793H53.7941V78ZM61.0108 76.3418C61.0108 76.8262 60.8506 77.2246 60.5303 77.5371C60.2139 77.8457 59.8135 78 59.3291 78H57.2315V68.8301H59.3291C59.8174 68.8301 60.2198 68.9863 60.5362 69.2988C60.8526 69.6074 61.0108 70.0039 61.0108 70.4883V76.3418ZM60.1963 76.2598V70.5586C60.1963 70.2578 60.1006 70.0156 59.9092 69.832C59.7217 69.6445 59.4776 69.5508 59.1768 69.5508H58.0459V77.2793H59.1299C59.4463 77.2793 59.7022 77.1895 59.8975 77.0098C60.0967 76.8262 60.1963 76.5762 60.1963 76.2598ZM72.7956 77.3496C72.7956 77.541 72.7351 77.6973 72.614 77.8184C72.4929 77.9395 72.3366 78 72.1452 78H69.1218V68.8301H72.1218C72.3132 68.8301 72.4695 68.8906 72.5905 69.0117C72.7116 69.1328 72.7722 69.2891 72.7722 69.4805V72.2051C72.7722 72.4473 72.6628 72.6504 72.4441 72.8145C72.2292 72.9434 72.0144 73.0723 71.7995 73.2012L72.4909 73.6465C72.6941 73.7715 72.7956 73.9668 72.7956 74.2324V77.3496ZM71.9519 72.3105V69.5508H69.9362V72.8613H71.1374L71.9519 72.3105ZM71.9753 77.2793V74.1094L71.1491 73.5703H69.9362V77.2793H71.9753ZM80.065 68.8828L78.9517 72.5918C78.8111 72.9629 78.6255 73.582 78.3951 74.4492V78H77.5806V74.4492C77.5259 74.1523 77.442 73.8398 77.3287 73.5117C77.1412 72.9492 77.0396 72.6426 77.024 72.5918L75.9107 68.8828C75.9107 68.8789 75.9107 68.8613 75.9107 68.8301H76.7369L77.9966 73.418L79.2447 68.8301H80.065C80.065 68.8574 80.065 68.875 80.065 68.8828ZM88.6038 78H87.7893V68.8301H88.6038V78ZM96.0723 78H95.5098L93.0606 71.2559V78H92.293V68.8301H92.9024L95.3048 75.457V68.8301H96.0723V78ZM102.861 69.5508H101.443V78H100.629V69.5508H99.1991V68.8301H102.861V69.5508ZM108.988 78H105.976V68.8301H108.953V69.5508H106.791V72.9727H108.76V73.7051H106.791V77.2793H108.988V78ZM115.355 78H112.425V68.8301H113.24V77.2793H115.355V78ZM121.558 78H118.628V68.8301H119.443V77.2793H121.558V78ZM127.843 78H124.831V68.8301H127.808V69.5508H125.646V72.9727H127.615V73.7051H125.646V77.2793H127.843V78ZM134.954 77.3496C134.954 77.541 134.892 77.6973 134.767 77.8184C134.642 77.9395 134.484 78 134.292 78H131.931C131.739 78 131.583 77.9395 131.462 77.8184C131.341 77.6973 131.28 77.541 131.28 77.3496V69.4805C131.28 69.2891 131.341 69.1328 131.462 69.0117C131.583 68.8906 131.739 68.8301 131.931 68.8301H134.292C134.484 68.8301 134.642 68.8906 134.767 69.0117C134.892 69.1328 134.954 69.2891 134.954 69.4805V71.6133H134.134V69.5508H132.095V77.2793H134.134V75.0234H134.954V77.3496ZM141.696 69.5508H140.278V78H139.464V69.5508H138.034V68.8301H141.696V69.5508ZM153.106 76.3418C153.106 76.8262 152.946 77.2246 152.626 77.5371C152.309 77.8457 151.909 78 151.424 78H149.327V68.8301H151.424C151.913 68.8301 152.315 68.9863 152.631 69.2988C152.948 69.6074 153.106 70.0039 153.106 70.4883V76.3418ZM152.292 76.2598V70.5586C152.292 70.2578 152.196 70.0156 152.005 69.832C151.817 69.6445 151.573 69.5508 151.272 69.5508H150.141V77.2793H151.225C151.542 77.2793 151.798 77.1895 151.993 77.0098C152.192 76.8262 152.292 76.5762 152.292 76.2598ZM160.604 78H159.749L158.043 73.0898L158.155 72.9258H159.608V69.5508H157.516V78H156.702V68.8301H159.772C159.963 68.8301 160.12 68.8906 160.241 69.0117C160.362 69.1328 160.422 69.2891 160.422 69.4805V72.9609C160.422 73.4023 160.125 73.623 159.532 73.623C159.473 73.623 159.387 73.6211 159.274 73.6172C159.161 73.6094 159.079 73.6055 159.028 73.6055C159.555 75.0664 160.081 76.5312 160.604 78ZM164.844 78H164.03V68.8301H164.844V78ZM172.113 68.8301L170.526 78.0234H169.758L168.17 68.8301H168.979L170.115 76.1309C170.115 76.1309 170.127 76.3301 170.151 76.7285C170.154 76.5918 170.168 76.3926 170.192 76.1309L171.328 68.8301H172.113ZM178.393 78H175.381V68.8301H178.357V69.5508H176.195V72.9727H178.164V73.7051H176.195V77.2793H178.393V78ZM185.609 78H185.047L182.598 71.2559V78H181.83V68.8301H182.439L184.842 75.457V68.8301H185.609V78ZM197.429 77.3496C197.429 77.541 197.369 77.6973 197.248 77.8184C197.126 77.9395 196.97 78 196.779 78H193.755V68.8301H196.755C196.947 68.8301 197.103 68.8906 197.224 69.0117C197.345 69.1328 197.406 69.2891 197.406 69.4805V72.2051C197.406 72.4473 197.296 72.6504 197.078 72.8145C196.863 72.9434 196.648 73.0723 196.433 73.2012L197.125 73.6465C197.328 73.7715 197.429 73.9668 197.429 74.2324V77.3496ZM196.585 72.3105V69.5508H194.57V72.8613H195.771L196.585 72.3105ZM196.609 77.2793V74.1094L195.783 73.5703H194.57V77.2793H196.609ZM204.699 68.8828L203.585 72.5918C203.445 72.9629 203.259 73.582 203.029 74.4492V78H202.214V74.4492C202.16 74.1523 202.076 73.8398 201.962 73.5117C201.775 72.9492 201.673 72.6426 201.658 72.5918L200.544 68.8828C200.544 68.8789 200.544 68.8613 200.544 68.8301H201.37L202.63 73.418L203.878 68.8301H204.699C204.699 68.8574 204.699 68.875 204.699 68.8828ZM215.956 68.8301L214.368 78.0234H213.601L212.013 68.8301H212.821L213.958 76.1309C213.958 76.1309 213.97 76.3301 213.993 76.7285C213.997 76.5918 214.011 76.3926 214.034 76.1309L215.171 68.8301H215.956ZM222.921 78H222.112L221.79 75.9609H219.968L219.645 78H218.86V77.9766L220.495 68.8066H221.298L222.921 78ZM221.684 75.2402L220.882 70.2715L220.073 75.2402H221.684ZM229.118 78H226.188V68.8301H227.003V77.2793H229.118V78ZM236.194 77.3496C236.194 77.541 236.131 77.6973 236.006 77.8184C235.885 77.9395 235.729 78 235.538 78H233.042C232.85 78 232.694 77.9395 232.573 77.8184C232.452 77.6973 232.391 77.541 232.391 77.3496V68.8301H233.206V77.2793H235.379V68.8301H236.194V77.3496ZM242.836 78H239.825V68.8301H242.801V69.5508H240.639V72.9727H242.608V73.7051H240.639V77.2793H242.836V78ZM249.848 77.3496C249.848 77.541 249.787 77.6973 249.666 77.8184C249.549 77.9395 249.395 78 249.203 78H246.895C246.703 78 246.545 77.9395 246.42 77.8184C246.299 77.6973 246.239 77.541 246.239 77.3496V75.0234H247.053V77.2793H249.033V75.0938L246.502 72.0352C246.326 71.8242 246.239 71.5918 246.239 71.3379V69.4805C246.239 69.2891 246.299 69.1328 246.42 69.0117C246.545 68.8906 246.703 68.8301 246.895 68.8301H249.203C249.395 68.8301 249.549 68.8906 249.666 69.0117C249.787 69.1328 249.848 69.2891 249.848 69.4805V71.6133H249.033V69.5508H247.053V71.4844L249.596 74.543C249.764 74.7461 249.848 74.9746 249.848 75.2285V77.3496Z" fill="white"/>
</g>
<path d="M252.907 49.4809C253.835 50.3133 254.024 50.787 254.062 50.9243C253.999 51.0522 253.727 51.4833 252.662 52.1317C251.248 52.9934 248.994 53.8781 245.811 54.7014C239.485 56.3378 230.258 57.5418 218.714 58.2221C195.676 59.5797 163.98 58.822 129.113 55.602C94.2454 52.3821 62.9465 47.3224 40.5469 41.7688C29.3227 38.9859 20.4724 36.1125 14.553 33.3453C11.5749 31.953 9.52128 30.6705 8.28852 29.5644C7.36081 28.732 7.17172 28.2583 7.13387 28.1211C7.19622 27.9931 7.46886 27.562 8.53331 26.9136C9.94779 26.052 12.2016 25.1672 15.3843 24.3439C21.7103 22.7075 30.9371 21.5035 42.4812 20.8232C65.5191 19.4656 97.2152 20.2234 132.083 23.4433C166.95 26.6632 198.249 31.7229 220.649 37.2765C231.873 40.0594 240.723 42.9328 246.642 45.7001C249.621 47.0923 251.674 48.3748 252.907 49.4809Z" stroke="url(#paint0_linear)" stroke-width="6.4"/>
<path d="M17.1792 53.288C16.4496 53.288 15.8352 53.0384 15.336 52.5392C14.8368 52.04 14.5872 51.4256 14.5872 50.696V16.3088C14.5872 15.272 14.952 14.3888 15.6816 13.6592C16.4112 12.8912 17.2944 12.5072 18.3312 12.5072H20.232C21 12.5072 21.6912 12.7376 22.3056 13.1984C22.9584 13.6592 23.4384 14.2352 23.7456 14.9264L36.8208 47.528L49.896 14.9264C50.2032 14.2352 50.664 13.6592 51.2784 13.1984C51.9312 12.7376 52.6416 12.5072 53.4096 12.5072H55.3104C56.3472 12.5072 57.2304 12.8912 57.96 13.6592C58.6896 14.3888 59.0544 15.272 59.0544 16.3088V50.696C59.0544 51.4256 58.8048 52.04 58.3056 52.5392C57.8064 53.0384 57.192 53.288 56.4624 53.288C55.7328 53.288 55.0992 53.0384 54.5616 52.5392C54.0624 52.04 53.8128 51.4256 53.8128 50.696V17.9792L40.5072 50.8688C40.2 51.5984 39.7008 52.1936 39.0096 52.6544C38.3568 53.0768 37.6272 53.288 36.8208 53.288C36.0144 53.288 35.2656 53.0768 34.5744 52.6544C33.9216 52.1936 33.4416 51.5984 33.1344 50.8688L19.8288 17.9792V50.696C19.8288 51.4256 19.56 52.04 19.0224 52.5392C18.5232 53.0384 17.9088 53.288 17.1792 53.288ZM69.9304 53.288C69.2008 53.288 68.5864 53.0384 68.0872 52.5392C67.588 52.04 67.3384 51.4256 67.3384 50.696V15.4448C67.3384 14.7152 67.588 14.1008 68.0872 13.6016C68.5864 13.064 69.2008 12.7952 69.9304 12.7952H92.3368C93.028 12.7952 93.604 13.0448 94.0648 13.544C94.564 14.0048 94.8136 14.5808 94.8136 15.272C94.8136 15.9632 94.564 16.5392 94.0648 17C93.604 17.4608 93.028 17.6912 92.3368 17.6912H72.58V30.4208H90.3208C91.012 30.4208 91.588 30.6704 92.0488 31.1696C92.548 31.6304 92.7976 32.2064 92.7976 32.8976C92.7976 33.5888 92.548 34.1648 92.0488 34.6256C91.588 35.0864 91.012 35.3168 90.3208 35.3168H72.58V50.696C72.58 51.4256 72.3112 52.04 71.7736 52.5392C71.2744 53.0384 70.66 53.288 69.9304 53.288ZM150.424 53.288C149.695 53.288 149.08 53.0384 148.581 52.5392C148.082 52.04 147.832 51.4256 147.832 50.696V15.4448C147.832 14.7152 148.082 14.1008 148.581 13.6016C149.08 13.064 149.695 12.7952 150.424 12.7952H163.845C169.067 12.7952 172.984 13.8704 175.595 16.0208C178.207 18.1712 179.512 20.9936 179.512 24.488C179.512 26.792 178.859 28.904 177.554 30.824C176.287 32.7056 174.424 34.0688 171.967 34.9136C174.731 35.6432 176.613 37.3712 177.611 40.0976C178.648 42.7856 179.167 45.4352 179.167 48.0464V50.696C179.167 51.4256 178.917 52.04 178.418 52.5392C177.919 53.0384 177.304 53.288 176.575 53.288C175.768 53.288 175.115 53.0576 174.616 52.5968C174.155 52.0976 173.925 51.464 173.925 50.696V48.968C173.925 47.048 173.752 45.2816 173.407 43.6688C173.061 42.0176 172.235 40.5584 170.93 39.2912C169.624 37.9856 167.647 37.3328 164.997 37.3328H153.074V50.696C153.074 51.4256 152.805 52.04 152.267 52.5392C151.768 53.0384 151.154 53.288 150.424 53.288ZM163.499 32.3792C166.802 32.3792 169.413 31.7264 171.333 30.4208C173.291 29.1152 174.271 27.272 174.271 24.8912C174.271 22.5872 173.426 20.8208 171.736 19.592C170.085 18.3632 167.243 17.7488 163.211 17.7488H153.074V32.3792H163.499ZM203.699 53.576C199.859 53.576 196.403 52.7504 193.331 51.0992C190.298 49.4096 187.898 47.0096 186.131 43.8992C184.403 40.7504 183.539 37.0832 183.539 32.8976C183.539 28.712 184.403 25.064 186.131 21.9536C187.898 18.8048 190.298 16.4048 193.331 14.7536C196.403 13.064 199.859 12.2192 203.699 12.2192C206.31 12.2192 208.634 12.5264 210.669 13.1408C212.742 13.7552 214.797 14.6384 216.832 15.7904C217.677 16.2512 218.099 16.9808 218.099 17.9792C218.099 18.5552 217.888 19.0736 217.466 19.5344C217.043 19.9568 216.486 20.168 215.795 20.168C215.411 20.168 215.066 20.0912 214.758 19.9376C213.069 19.0544 211.418 18.3824 209.805 17.9216C208.192 17.4608 206.33 17.2304 204.218 17.2304C200.915 17.2304 198.093 17.9216 195.75 19.304C193.446 20.648 191.699 22.5104 190.509 24.8912C189.357 27.2336 188.781 29.9024 188.781 32.8976C188.781 35.8928 189.357 38.5808 190.509 40.9616C191.699 43.304 193.446 45.1664 195.75 46.5488C198.093 47.8928 200.915 48.5648 204.218 48.5648C206.33 48.5648 208.192 48.3344 209.805 47.8736C211.418 47.4128 213.069 46.7408 214.758 45.8576C215.066 45.704 215.411 45.6272 215.795 45.6272C216.486 45.6272 217.043 45.8384 217.466 46.2608C217.888 46.6832 218.099 47.2016 218.099 47.816C218.099 48.8144 217.677 49.544 216.832 50.0048C214.797 51.1568 212.742 52.04 210.669 52.6544C208.634 53.2688 206.31 53.576 203.699 53.576ZM225.72 53C224.991 53 224.376 52.7504 223.877 52.2512C223.378 51.752 223.128 51.1376 223.128 50.408V15.4448C223.128 14.7152 223.378 14.1008 223.877 13.6016C224.376 13.064 224.991 12.7952 225.72 12.7952H248.818C249.509 12.7952 250.085 13.0448 250.546 13.544C251.045 14.0048 251.295 14.5808 251.295 15.272C251.295 15.9632 251.045 16.5392 250.546 17C250.085 17.4608 249.509 17.6912 248.818 17.6912H228.37V30.4208H246.744C247.436 30.4208 248.012 30.6704 248.472 31.1696C248.972 31.6304 249.221 32.2064 249.221 32.8976C249.221 33.5888 248.972 34.1648 248.472 34.6256C248.012 35.0864 247.436 35.3168 246.744 35.3168H228.37V48.104H248.818C249.509 48.104 250.085 48.3536 250.546 48.8528C251.045 49.3136 251.295 49.8896 251.295 50.5808C251.295 51.272 251.045 51.848 250.546 52.3088C250.085 52.7696 249.509 53 248.818 53H225.72Z" fill="white"/>
<path d="M26.5 34.5L32.3 36.3L35.4 44L29.55 42.1L26.5 34.5Z" fill="white"/>
<path d="M25.4 19L20.6 20L23 26L28 25.5L25.4 19Z" fill="white"/>
<circle cx="248.8" cy="50.6" r="2.5" fill="white"/>
<path d="M238.963 48.1036L248.5 48.1C248.5 48.1 248.5 53 248 53C247.5 53 238.5 53 238.5 53L238.963 48.1036Z" fill="white"/>
<defs>
<filter id="filter0_f" x="105" y="54" width="33" height="13" filterUnits="userSpaceOnUse" color-interpolation-filters="sRGB">
<feFlood flood-opacity="0" result="BackgroundImageFix"/>
<feBlend mode="normal" in="SourceGraphic" in2="BackgroundImageFix" result="shape"/>
<feGaussianBlur stdDeviation="2" result="effect1_foregroundBlur"/>
</filter>
<filter id="filter1_d" x="8.73242" y="67.8066" width="242.115" height="15.2168" filterUnits="userSpaceOnUse" color-interpolation-filters="sRGB">
<feFlood flood-opacity="0" result="BackgroundImageFix"/>
<feColorMatrix in="SourceAlpha" type="matrix" values="0 0 0 0 0 0 0 0 0 0 0 0 0 0 0 0 0 0 127 0"/>
<feOffset dx="-2" dy="2"/>
<feGaussianBlur stdDeviation="1.5"/>
<feColorMatrix type="matrix" values="0 0 0 0 0 0 0 0 0 0 0 0 0 0 0 0 0 0 0.1 0"/>
<feBlend mode="normal" in2="BackgroundImageFix" result="effect1_dropShadow"/>
<feBlend mode="normal" in="SourceGraphic" in2="effect1_dropShadow" result="shape"/>
</filter>
<linearGradient id="paint0_linear" x1="142.5" y1="48" x2="144.5" y2="27.5" gradientUnits="userSpaceOnUse">
<stop stop-color="#FF4A17"/>
<stop offset="1" stop-color="#FF4A17" stop-opacity="0"/>
</linearGradient>
</defs>
</svg>
